<?xml version="1.0" encoding="UTF-8"?>
<!DOCTYPE svg PUBLIC "-//W3C//DTD SVG 1.1//EN" "http://www.w3.org/Graphics/SVG/1.1/DTD/svg11.dtd">
<svg xmlns="http://www.w3.org/2000/svg" version="1.1" width="500px" height="500px" style="shape-rendering:geometricPrecision; text-rendering:geometricPrecision; image-rendering:optimizeQuality; fill-rule:evenodd; clip-rule:evenodd" xmlns:xlink="http://www.w3.org/1999/xlink">
<g><path style="opacity:1" fill="#691e38" d="M 116.5,194.5 C 116.022,197.278 117.022,199.278 119.5,200.5C 116.149,203.301 114.649,206.968 115,211.5C 114.667,208.833 114.333,206.167 114,203.5C 113.097,202.299 111.931,201.465 110.5,201C 113.941,199.682 115.275,197.182 114.5,193.5C 114.848,188.625 115.515,188.959 116.5,194.5 Z"/></g>
<g><path style="opacity:1" fill="#ea99c0" d="M 184.5,197.5 C 192.5,197.833 200.5,198.167 208.5,198.5C 211.5,198.5 214.5,198.5 217.5,198.5C 230.817,199.306 244.15,199.639 257.5,199.5C 248.345,214.277 245.345,230.277 248.5,247.5C 232.5,248.167 216.5,248.833 200.5,249.5C 195.167,249.5 189.833,249.5 184.5,249.5C 184.5,232.167 184.5,214.833 184.5,197.5 Z"/></g>
<g><path style="opacity:1" fill="#ea99c0" d="M 114.5,193.5 C 115.275,197.182 113.941,199.682 110.5,201C 111.931,201.465 113.097,202.299 114,203.5C 114.333,206.167 114.667,208.833 115,211.5C 114.649,206.968 116.149,203.301 119.5,200.5C 117.022,199.278 116.022,197.278 116.5,194.5C 128.378,194.145 140.045,194.812 151.5,196.5C 151.288,198.384 150.288,199.717 148.5,200.5C 149,200.833 149.5,201.167 150,201.5C 153.543,199.144 157.377,197.478 161.5,196.5C 167.841,198.352 174.174,198.685 180.5,197.5C 181.496,211.323 181.829,225.323 181.5,239.5C 181.5,243.167 181.5,246.833 181.5,250.5C 160.017,250.845 138.683,252.511 117.5,255.5C 117.289,253.044 117.289,250.544 117.5,248C 111.431,248.318 105.098,248.318 98.5,248C 95.7431,244.916 93.4098,241.583 91.5,238C 94.327,233.914 95.9937,229.747 96.5,225.5C 97.4584,225.953 98.2917,226.619 99,227.5C 99.3333,223.833 99.6667,220.167 100,216.5C 101.71,213.104 104.543,211.604 108.5,212C 107.584,211.722 106.918,211.222 106.5,210.5C 107.376,210.631 108.043,210.298 108.5,209.5C 107.689,208.784 107.022,207.95 106.5,207C 108.983,204.597 108.983,202.264 106.5,200C 107.406,198.301 107.739,196.467 107.5,194.5C 109.903,194.552 112.236,194.219 114.5,193.5 Z"/></g>
<g><path style="opacity:0.999" fill="#ea99c0" d="M 393.5,271.5 C 392.5,270.833 391.5,270.167 390.5,269.5C 388.052,268.527 385.385,268.194 382.5,268.5C 379.375,267.521 376.042,267.187 372.5,267.5C 368.552,266.053 365.719,263.387 364,259.5C 362.509,252.898 361.342,246.231 360.5,239.5C 359.657,246.222 358.491,252.889 357,259.5C 354.193,264.96 349.693,268.127 343.5,269C 337.493,269.501 331.493,270.001 325.5,270.5C 326.602,268.908 325.935,268.075 323.5,268C 325.9,267.814 328.234,267.314 330.5,266.5C 331.326,265.549 331.492,264.549 331,263.5C 330.667,263.833 330.333,264.167 330,264.5C 329.167,263.5 328.333,262.5 327.5,261.5C 326.033,262.695 324.533,262.695 323,261.5C 320.625,261.818 319.458,263.151 319.5,265.5C 318.325,265.281 317.325,265.614 316.5,266.5C 316.023,267.931 315.357,269.264 314.5,270.5C 314.264,269.753 313.93,268.92 313.5,268C 312.833,267.333 312.167,267.333 311.5,268C 312.696,268.654 312.696,269.154 311.5,269.5C 309.884,268.885 308.551,267.885 307.5,266.5C 306.614,267.325 306.281,268.325 306.5,269.5C 303.402,269.587 303.068,269.087 305.5,268C 305.795,266.286 305.462,264.453 304.5,262.5C 306.286,260.882 300.286,259.382 286.5,258C 252.563,253.893 218.563,253.393 184.5,256.5C 184.5,254.833 184.5,253.167 184.5,251.5C 191.982,250.508 199.648,250.175 207.5,250.5C 220.833,250.5 234.167,250.5 247.5,250.5C 248.959,250.433 250.292,250.766 251.5,251.5C 284.649,251.262 317.482,254.595 350,261.5C 350.5,261.167 351,260.833 351.5,260.5C 320.176,254.001 288.509,250.334 256.5,249.5C 256.795,247.265 256.461,245.265 255.5,243.5C 255.471,240.227 256.804,239.56 259.5,241.5C 261.187,241.24 262.687,240.573 264,239.5C 264.479,241.646 265.812,242.646 268,242.5C 270.503,242.01 272.503,240.677 274,238.5C 277.188,242.281 280.521,242.281 284,238.5C 287,242.5 290,242.5 293,238.5C 293.297,241.295 294.797,242.961 297.5,243.5C 300.655,242.85 303.155,241.183 305,238.5C 305.494,240.134 305.66,241.801 305.5,243.5C 306.822,243.67 307.989,243.337 309,242.5C 309.899,238.462 311.566,234.795 314,231.5C 315.096,233.889 315.929,236.389 316.5,239C 320.881,240.246 323.381,238.746 324,234.5C 322.491,236.919 320.325,237.919 317.5,237.5C 317.287,227.601 314.453,226.934 309,235.5C 308.643,231.49 308.81,227.49 309.5,223.5C 310.531,221.039 311.198,218.373 311.5,215.5C 311.972,210.433 312.639,205.433 313.5,200.5C 315.144,200.714 316.644,200.38 318,199.5C 320.081,201.482 322.581,202.816 325.5,203.5C 334.845,202.614 344.511,201.947 354.5,201.5C 363.832,202.017 373.166,202.517 382.5,203C 384.455,207.183 386.955,211.017 390,214.5C 392.093,213.754 394.093,213.421 396,213.5C 397.324,214.88 398.657,215.214 400,214.5C 403.831,215.499 407.665,216.499 411.5,217.5C 412.37,222.99 414.37,227.49 417.5,231C 416.736,233.069 416.236,235.236 416,237.5C 414.028,239.442 411.861,239.776 409.5,238.5C 406.297,239.537 403.463,241.203 401,243.5C 401.414,250.73 402.247,257.73 403.5,264.5C 402.105,266.861 400.105,268.528 397.5,269.5C 398.025,270.192 398.692,270.692 399.5,271C 397.527,271.495 395.527,271.662 393.5,271.5 Z"/></g>
<g><path style="opacity:1" fill="#530c26" d="M 217.5,198.5 C 214.5,198.5 211.5,198.5 208.5,198.5C 211.991,196.861 215.657,195.361 219.5,194C 221.865,192.211 223.532,190.044 224.5,187.5C 211.348,186.974 198.348,188.141 185.5,191C 184.944,191.383 184.611,191.883 184.5,192.5C 183.669,207.661 183.169,222.995 183,238.5C 182.617,239.056 182.117,239.389 181.5,239.5C 181.829,225.323 181.496,211.323 180.5,197.5C 180.662,195.473 180.495,193.473 180,191.5C 173.826,193.085 167.66,194.752 161.5,196.5C 157.377,197.478 153.543,199.144 150,201.5C 149.5,201.167 149,200.833 148.5,200.5C 150.288,199.717 151.288,198.384 151.5,196.5C 162.156,193.547 172.656,190.213 183,186.5C 184.626,187.018 186.293,187.352 188,187.5C 200.722,184.894 213.556,184.061 226.5,185C 228.41,185.408 229.41,186.575 229.5,188.5C 226.663,193.249 222.663,196.582 217.5,198.5 Z M 180.5,197.5 C 174.174,198.685 167.841,198.352 161.5,196.5C 167.66,194.752 173.826,193.085 180,191.5C 180.495,193.473 180.662,195.473 180.5,197.5 Z M 208.5,198.5 C 200.5,198.167 192.5,197.833 184.5,197.5C 184.5,195.833 184.5,194.167 184.5,192.5C 184.611,191.883 184.944,191.383 185.5,191C 198.348,188.141 211.348,186.974 224.5,187.5C 223.532,190.044 221.865,192.211 219.5,194C 215.657,195.361 211.991,196.861 208.5,198.5 Z"/></g>
<g><path style="opacity:1" fill="#5e1831" d="M 106.5,210.5 C 106.918,211.222 107.584,211.722 108.5,212C 104.543,211.604 101.71,213.104 100,216.5C 99.6667,220.167 99.3333,223.833 99,227.5C 98.2917,226.619 97.4584,225.953 96.5,225.5C 96.6107,224.883 96.944,224.383 97.5,224C 96.376,223.751 95.376,223.251 94.5,222.5C 98.3914,218.69 97.7248,215.523 92.5,213C 90.5,212.667 88.5,212.333 86.5,212C 89.8673,211.2 93.034,210.034 96,208.5C 97.1613,203.894 98.1613,199.227 99,194.5C 99.5735,198.848 100.24,203.181 101,207.5C 102.174,209.671 104.007,210.671 106.5,210.5 Z"/></g>
<g><path style="opacity:0.118" fill="#cba1c2" d="M 405.5,213.5 C 406.833,214.167 406.833,214.167 405.5,213.5 Z"/></g>
<g><path style="opacity:1" fill="#a45572" d="M 311.5,215.5 C 311.198,218.373 310.531,221.039 309.5,223.5C 308.282,216.263 308.616,208.929 310.5,201.5C 310.51,206.274 310.843,210.941 311.5,215.5 Z"/></g>
<g><path style="opacity:1" fill="#51142c" d="M 82.5,214.5 C 83.9265,216.148 84.7599,218.148 85,220.5C 85.9025,221.701 87.0692,222.535 88.5,223C 87.4214,223.956 86.2547,224.789 85,225.5C 83.5488,234.753 82.3821,234.753 81.5,225.5C 80.0921,224.757 78.7588,223.923 77.5,223C 81.9547,221.937 83.6214,219.104 82.5,214.5 Z"/></g>
<g><path style="opacity:1" fill="#681838" d="M 133.5,217.5 C 134.29,218.609 134.79,219.942 135,221.5C 136.067,222.191 137.234,222.691 138.5,223C 137.234,223.309 136.067,223.809 135,224.5C 134.333,232.5 133.667,232.5 133,224.5C 129.667,223.5 129.667,222.5 133,221.5C 133.49,220.207 133.657,218.873 133.5,217.5 Z"/></g>
<g><path style="opacity:1" fill="#621430" d="M 313.5,200.5 C 312.639,205.433 311.972,210.433 311.5,215.5C 310.843,210.941 310.51,206.274 310.5,201.5C 308.616,208.929 308.282,216.263 309.5,223.5C 308.81,227.49 308.643,231.49 309,235.5C 314.453,226.934 317.287,227.601 317.5,237.5C 320.325,237.919 322.491,236.919 324,234.5C 323.381,238.746 320.881,240.246 316.5,239C 315.929,236.389 315.096,233.889 314,231.5C 311.566,234.795 309.899,238.462 309,242.5C 307.989,243.337 306.822,243.67 305.5,243.5C 305.66,241.801 305.494,240.134 305,238.5C 303.155,241.183 300.655,242.85 297.5,243.5C 294.797,242.961 293.297,241.295 293,238.5C 290,242.5 287,242.5 284,238.5C 280.521,242.281 277.188,242.281 274,238.5C 272.503,240.677 270.503,242.01 268,242.5C 265.812,242.646 264.479,241.646 264,239.5C 262.687,240.573 261.187,241.24 259.5,241.5C 256.804,239.56 255.471,240.227 255.5,243.5C 255.975,246.082 255.308,248.082 253.5,249.5C 253.727,244.902 252.894,240.568 251,236.5C 250.426,240.977 250.926,245.31 252.5,249.5C 252.167,250.167 251.833,250.833 251.5,251.5C 250.292,250.766 248.959,250.433 247.5,250.5C 248.091,249.849 248.757,249.182 249.5,248.5C 249.376,247.893 249.043,247.56 248.5,247.5C 245.345,230.277 248.345,214.277 257.5,199.5C 260.911,196.645 263.911,196.978 266.5,200.5C 266.82,205.531 265.653,210.197 263,214.5C 259.752,220.664 256.252,226.664 252.5,232.5C 254.188,237.377 257.521,239.543 262.5,239C 264.5,236.667 266.5,234.333 268.5,232C 271.224,231.73 273.891,231.23 276.5,230.5C 277.318,233.107 277.818,235.774 278,238.5C 282.857,239.138 285.024,236.804 284.5,231.5C 285.5,231.5 286.5,231.5 287.5,231.5C 287.5,234.167 287.5,236.833 287.5,239.5C 292.184,238.503 294.184,235.503 293.5,230.5C 294.538,226.161 292.871,223.994 288.5,224C 290.134,223.506 291.801,223.34 293.5,223.5C 293.338,221.473 293.505,219.473 294,217.5C 294.414,217.043 294.914,216.709 295.5,216.5C 296.474,218.743 296.808,221.076 296.5,223.5C 299.5,223.5 302.5,223.5 305.5,223.5C 305.39,215.475 305.724,207.475 306.5,199.5C 306.305,195.063 308.139,193.396 312,194.5C 313.128,196.345 313.628,198.345 313.5,200.5 Z"/></g>
<g><path style="opacity:1" fill="#dc8cac" d="M 270.5,232.5 C 272.103,232.312 273.437,232.812 274.5,234C 273.546,237.792 271.213,239.958 267.5,240.5C 267.394,237.385 268.394,234.719 270.5,232.5 Z"/></g>
<g><path style="opacity:1" fill="#e795ba" d="M 295.5,225.5 C 298.833,225.5 302.167,225.5 305.5,225.5C 307.536,233.196 305.036,238.529 298,241.5C 297.228,241.355 296.561,241.022 296,240.5C 295.501,235.511 295.334,230.511 295.5,225.5 Z"/></g>
<g><path style="opacity:1" fill="#e695b9" d="M 260.5,199.5 C 264.225,199.78 265.392,201.78 264,205.5C 260.972,214.557 256.639,222.89 251,230.5C 251.042,219.208 254.209,208.874 260.5,199.5 Z"/></g>
<g><path style="opacity:1" fill="#ea98bf" d="M 306.5,199.5 C 305.724,207.475 305.39,215.475 305.5,223.5C 302.5,223.5 299.5,223.5 296.5,223.5C 296.808,221.076 296.474,218.743 295.5,216.5C 294.914,216.709 294.414,217.043 294,217.5C 293.505,219.473 293.338,221.473 293.5,223.5C 291.801,223.34 290.134,223.506 288.5,224C 292.871,223.994 294.538,226.161 293.5,230.5C 294.184,235.503 292.184,238.503 287.5,239.5C 287.5,236.833 287.5,234.167 287.5,231.5C 286.5,231.5 285.5,231.5 284.5,231.5C 285.024,236.804 282.857,239.138 278,238.5C 277.818,235.774 277.318,233.107 276.5,230.5C 273.891,231.23 271.224,231.73 268.5,232C 266.5,234.333 264.5,236.667 262.5,239C 257.521,239.543 254.188,237.377 252.5,232.5C 256.252,226.664 259.752,220.664 263,214.5C 265.653,210.197 266.82,205.531 266.5,200.5C 274.278,200.277 282.111,200.277 290,200.5C 295.062,199.942 300.062,199.275 305,198.5C 305.383,199.056 305.883,199.389 306.5,199.5 Z"/></g>
<g><path style="opacity:1" fill="#6e1f3c" d="M 199.5,232.5 C 199.669,237.041 199.002,237.374 197.5,233.5C 196.719,234.729 196.219,236.062 196,237.5C 195.333,236.833 194.667,236.167 194,235.5C 193.506,237.134 193.34,238.801 193.5,240.5C 195.903,240.607 197.736,239.607 199,237.5C 199.383,238.056 199.883,238.389 200.5,238.5C 201.458,238.047 202.292,237.381 203,236.5C 202.623,230.849 204.79,229.349 209.5,232C 208.551,232.617 207.718,232.451 207,231.5C 206.906,238.067 209.239,239.067 214,234.5C 214.483,233.552 214.649,232.552 214.5,231.5C 215.5,231.5 216.5,231.5 217.5,231.5C 217.5,234.167 217.5,236.833 217.5,239.5C 221.994,238.841 223.661,236.175 222.5,231.5C 224.124,231.36 225.29,232.027 226,233.5C 227.848,230.959 230.348,229.959 233.5,230.5C 233.5,233.5 233.5,236.5 233.5,239.5C 234.675,239.719 235.675,239.386 236.5,238.5C 237.083,236.998 237.916,235.665 239,234.5C 238.926,238.299 237.093,240.965 233.5,242.5C 232.522,242.023 231.689,241.357 231,240.5C 230.667,237.833 230.333,235.167 230,232.5C 227.512,235.453 225.679,238.786 224.5,242.5C 223.201,241.91 222.368,240.91 222,239.5C 217.557,242.806 214.557,241.806 213,236.5C 211.018,238.358 209.852,240.691 209.5,243.5C 205.394,245.23 203.894,243.897 205,239.5C 207,238.5 207,237.5 205,236.5C 201.624,238.719 198.124,240.719 194.5,242.5C 191.539,241.581 190.372,239.581 191,236.5C 192.549,231.971 195.383,230.637 199.5,232.5 Z"/></g>
<g><path style="opacity:1" fill="#994a64" d="M 199.5,232.5 C 200.461,234.265 200.795,236.265 200.5,238.5C 199.883,238.389 199.383,238.056 199,237.5C 197.736,239.607 195.903,240.607 193.5,240.5C 193.34,238.801 193.506,237.134 194,235.5C 194.667,236.167 195.333,236.833 196,237.5C 196.219,236.062 196.719,234.729 197.5,233.5C 199.002,237.374 199.669,237.041 199.5,232.5 Z"/></g>
<g><path style="opacity:1" fill="#d688a2" d="M 253.5,249.5 C 253.167,249.5 252.833,249.5 252.5,249.5C 250.926,245.31 250.426,240.977 251,236.5C 252.894,240.568 253.727,244.902 253.5,249.5 Z"/></g>
<g><path style="opacity:1" fill="#5d0d27" d="M 381.5,244.5 C 383.437,246.091 385.437,247.758 387.5,249.5C 385.473,250.693 383.973,252.36 383,254.5C 381.316,252.649 379.483,250.982 377.5,249.5C 379.611,248.395 380.945,246.729 381.5,244.5 Z"/></g>
<g><path style="opacity:1" fill="#8d3b5f" d="M 248.5,247.5 C 249.043,247.56 249.376,247.893 249.5,248.5C 248.757,249.182 248.091,249.849 247.5,250.5C 234.167,250.5 220.833,250.5 207.5,250.5C 205.393,249.532 203.059,249.198 200.5,249.5C 216.5,248.833 232.5,248.167 248.5,247.5 Z"/></g>
<g><path style="opacity:1" fill="#60102f" d="M 342.5,245.5 C 343.058,247.593 344.391,249.093 346.5,250C 344.951,251.214 343.785,252.714 343,254.5C 342.167,252.333 340.667,250.833 338.5,250C 341.447,249.888 342.78,248.388 342.5,245.5 Z"/></g>
<g><path style="opacity:1" fill="#813152" d="M 255.5,243.5 C 256.461,245.265 256.795,247.265 256.5,249.5C 288.509,250.334 320.176,254.001 351.5,260.5C 351,260.833 350.5,261.167 350,261.5C 317.482,254.595 284.649,251.262 251.5,251.5C 251.833,250.833 252.167,250.167 252.5,249.5C 252.833,249.5 253.167,249.5 253.5,249.5C 255.308,248.082 255.975,246.082 255.5,243.5 Z"/></g>
<g><path style="opacity:1" fill="#eb9ac1" d="M 183.5,262.5 C 184.103,260.81 185.103,259.31 186.5,258C 226.066,253.757 265.399,255.257 304.5,262.5C 305.462,264.453 305.795,266.286 305.5,268C 303.068,269.087 303.402,269.587 306.5,269.5C 306.281,268.325 306.614,267.325 307.5,266.5C 308.551,267.885 309.884,268.885 311.5,269.5C 312.696,269.154 312.696,268.654 311.5,268C 312.167,267.333 312.833,267.333 313.5,268C 313.93,268.92 314.264,269.753 314.5,270.5C 315.357,269.264 316.023,267.931 316.5,266.5C 317.325,265.614 318.325,265.281 319.5,265.5C 319.458,263.151 320.625,261.818 323,261.5C 324.533,262.695 326.033,262.695 327.5,261.5C 328.333,262.5 329.167,263.5 330,264.5C 330.333,264.167 330.667,263.833 331,263.5C 331.492,264.549 331.326,265.549 330.5,266.5C 328.234,267.314 325.9,267.814 323.5,268C 325.935,268.075 326.602,268.908 325.5,270.5C 327.361,271.507 330.028,271.84 333.5,271.5C 336.122,272.033 338.622,273.033 341,274.5C 341.383,273.944 341.883,273.611 342.5,273.5C 342.5,273.833 342.5,274.167 342.5,274.5C 343.531,275.249 344.698,275.915 346,276.5C 346.667,277.5 346.667,278.5 346,279.5C 342.773,281.403 339.606,283.069 336.5,284.5C 335.179,282.58 333.846,282.413 332.5,284C 332.833,284.333 333.167,284.667 333.5,285C 331.275,285.561 329.275,286.561 327.5,288C 317.197,289.88 307.03,290.38 297,289.5C 265.539,290.54 234.039,292.04 202.5,294C 197.813,294.726 193.146,295.559 188.5,296.5C 183.131,295.297 178.631,292.63 175,288.5C 174.82,286.512 174.986,284.512 175.5,282.5C 164.236,280.786 152.902,279.619 141.5,279C 139.922,277.906 138.255,277.072 136.5,276.5C 133.594,276.859 130.594,276.359 127.5,275C 125.875,274.147 125.542,273.147 126.5,272C 125.552,271.517 124.552,271.351 123.5,271.5C 123.022,268.722 124.022,266.722 126.5,265.5C 125.403,263.465 123.737,262.132 121.5,261.5C 120.74,259.64 119.74,257.973 118.5,256.5C 139.461,254.442 160.461,252.775 181.5,251.5C 181.5,253.5 181.5,255.5 181.5,257.5C 166.04,258.516 150.707,260.516 135.5,263.5C 136.333,263.833 137.167,264.167 138,264.5C 152.412,261.809 166.912,259.809 181.5,258.5C 181.215,260.288 181.548,261.955 182.5,263.5C 183.107,263.376 183.44,263.043 183.5,262.5 Z"/></g>
<g><path style="opacity:1" fill="#6f213f" d="M 184.5,192.5 C 184.5,194.167 184.5,195.833 184.5,197.5C 184.5,214.833 184.5,232.167 184.5,249.5C 189.833,249.5 195.167,249.5 200.5,249.5C 203.059,249.198 205.393,249.532 207.5,250.5C 199.648,250.175 191.982,250.508 184.5,251.5C 183.518,254.962 183.185,258.629 183.5,262.5C 183.44,263.043 183.107,263.376 182.5,263.5C 181.548,261.955 181.215,260.288 181.5,258.5C 166.912,259.809 152.412,261.809 138,264.5C 137.167,264.167 136.333,263.833 135.5,263.5C 150.707,260.516 166.04,258.516 181.5,257.5C 181.5,255.5 181.5,253.5 181.5,251.5C 160.461,252.775 139.461,254.442 118.5,256.5C 117.833,256.5 117.5,256.167 117.5,255.5C 138.683,252.511 160.017,250.845 181.5,250.5C 181.5,246.833 181.5,243.167 181.5,239.5C 182.117,239.389 182.617,239.056 183,238.5C 183.169,222.995 183.669,207.661 184.5,192.5 Z"/></g>
<g><path style="opacity:1" fill="#7e2e4f" d="M 184.5,251.5 C 184.5,253.167 184.5,254.833 184.5,256.5C 218.563,253.393 252.563,253.893 286.5,258C 300.286,259.382 306.286,260.882 304.5,262.5C 265.399,255.257 226.066,253.757 186.5,258C 185.103,259.31 184.103,260.81 183.5,262.5C 183.185,258.629 183.518,254.962 184.5,251.5 Z"/></g>
<g><path style="opacity:1" fill="#590e25" d="M 372.5,267.5 C 377.765,269.15 383.099,270.483 388.5,271.5C 381.647,271.838 375.147,273.505 369,276.5C 368.667,277.5 368.333,278.5 368,279.5C 367.333,278.167 366.667,278.167 366,279.5C 363.11,285.837 361.61,292.503 361.5,299.5C 367.831,298.029 370.998,300.362 371,306.5C 370.167,308 369,309.167 367.5,310C 369.923,311.571 371.256,313.737 371.5,316.5C 370.448,316.649 369.448,316.483 368.5,316C 367.174,313.842 365.507,312.008 363.5,310.5C 362.692,312.423 362.192,314.423 362,316.5C 361.333,317.833 360.667,317.833 360,316.5C 359.667,309.167 359.333,301.833 359,294.5C 358.885,289.768 357.718,285.434 355.5,281.5C 355.219,278.237 353.552,276.237 350.5,275.5C 350.167,275.5 349.833,275.5 349.5,275.5C 349.167,274.167 348.833,274.167 348.5,275.5C 348.167,275.5 347.833,275.5 347.5,275.5C 347.5,274.833 347.167,274.5 346.5,274.5C 345.319,272.933 343.653,272.099 341.5,272C 338.854,271.503 336.187,271.336 333.5,271.5C 330.028,271.84 327.361,271.507 325.5,270.5C 331.493,270.001 337.493,269.501 343.5,269C 349.693,268.127 354.193,264.96 357,259.5C 358.491,252.889 359.657,246.222 360.5,239.5C 361.342,246.231 362.509,252.898 364,259.5C 365.719,263.387 368.552,266.053 372.5,267.5 Z M 362.5,302.5 C 364.977,302.051 366.977,302.717 368.5,304.5C 367.278,306.978 365.278,307.978 362.5,307.5C 362.5,305.833 362.5,304.167 362.5,302.5 Z"/></g>
<g><path style="opacity:0.753" fill="#833d5c" d="M 372.5,267.5 C 376.042,267.187 379.375,267.521 382.5,268.5C 384.948,269.473 387.615,269.806 390.5,269.5C 391.5,270.167 392.5,270.833 393.5,271.5C 391.833,271.5 390.167,271.5 388.5,271.5C 383.099,270.483 377.765,269.15 372.5,267.5 Z"/></g>
<g><path style="opacity:0.102" fill="#daa7c4" d="M 136.5,276.5 C 136.103,277.525 135.437,277.692 134.5,277C 135.094,276.536 135.761,276.369 136.5,276.5 Z"/></g>
<g><path style="opacity:0.551" fill="#c07895" d="M 333.5,271.5 C 336.187,271.336 338.854,271.503 341.5,272C 343.653,272.099 345.319,272.933 346.5,274.5C 347.167,274.5 347.5,274.833 347.5,275.5C 347.833,275.5 348.167,275.5 348.5,275.5C 348.833,275.5 349.167,275.5 349.5,275.5C 349.833,276.833 350.167,276.833 350.5,275.5C 353.552,276.237 355.219,278.237 355.5,281.5C 355.714,285.257 354.714,285.924 352.5,283.5C 350.855,284.696 349.189,285.696 347.5,286.5C 346.442,285.4 345.608,284.066 345,282.5C 344.31,284.35 343.144,285.684 341.5,286.5C 339.302,286.88 337.635,286.213 336.5,284.5C 339.606,283.069 342.773,281.403 346,279.5C 346.667,278.5 346.667,277.5 346,276.5C 344.698,275.915 343.531,275.249 342.5,274.5C 343.833,274.167 343.833,273.833 342.5,273.5C 341.883,273.611 341.383,273.944 341,274.5C 338.622,273.033 336.122,272.033 333.5,271.5 Z"/></g>
<g><path style="opacity:1" fill="#5a132b" d="M 347.5,286.5 C 352.578,288.028 352.411,289.695 347,291.5C 346.333,292.833 345.667,294.167 345,295.5C 343.734,291.9 341.234,289.733 337.5,289C 338.858,288.066 340.192,287.232 341.5,286.5C 343.144,285.684 344.31,284.35 345,282.5C 345.608,284.066 346.442,285.4 347.5,286.5 Z"/></g>
<g><path style="opacity:0.961" fill="#54122b" d="M 331.5,299.5 C 339.382,298.546 342.549,301.879 341,309.5C 339.247,310.627 337.413,311.627 335.5,312.5C 334.851,314.624 334.017,316.624 333,318.5C 331.545,312.347 331.045,306.014 331.5,299.5 Z M 334.5,302.5 C 338.013,303.028 339.013,304.862 337.5,308C 336.552,308.483 335.552,308.649 334.5,308.5C 334.5,306.5 334.5,304.5 334.5,302.5 Z"/></g>
<g><path style="opacity:0.349" fill="#57162e" d="M 196.5,299.5 C 197.675,299.281 198.675,299.614 199.5,300.5C 201.333,303.5 203.167,306.5 205,309.5C 205.498,306.518 205.665,303.518 205.5,300.5C 207.635,300.147 208.968,300.98 209.5,303C 209.984,319.286 206.484,320.453 199,306.5C 198.502,309.817 198.335,313.15 198.5,316.5C 197.5,316.5 196.5,316.5 195.5,316.5C 195.214,310.741 195.548,305.075 196.5,299.5 Z"/></g>
<g><path style="opacity:0.788" fill="#5a1a35" d="M 285.5,298.5 C 288.5,298.5 291.5,298.5 294.5,298.5C 294.5,299.5 294.5,300.5 294.5,301.5C 292.5,301.5 290.5,301.5 288.5,301.5C 288.215,303.288 288.548,304.955 289.5,306.5C 291.071,305.691 292.738,305.357 294.5,305.5C 294.5,306.5 294.5,307.5 294.5,308.5C 288.569,307.993 287.069,310.326 290,315.5C 290.725,314.941 291.558,314.608 292.5,314.5C 293.932,314.733 294.432,315.4 294,316.5C 291.456,319.08 288.956,319.08 286.5,316.5C 285.855,310.968 285.188,305.468 284.5,300C 285.056,299.617 285.389,299.117 285.5,298.5 Z"/></g>
<g><path style="opacity:0.876" fill="#52132c" d="M 118.5,298.5 C 127.189,300.127 128.522,303.961 122.5,310C 124.923,311.571 126.256,313.737 126.5,316.5C 125.448,316.649 124.448,316.483 123.5,316C 122.174,313.842 120.507,312.008 118.5,310.5C 117.692,312.423 117.192,314.423 117,316.5C 116.333,317.833 115.667,317.833 115,316.5C 114.501,310.843 114.334,305.176 114.5,299.5C 116.099,299.768 117.432,299.434 118.5,298.5 Z M 117.5,302.5 C 119.977,302.051 121.977,302.717 123.5,304.5C 122.061,306.553 120.061,307.553 117.5,307.5C 117.5,305.833 117.5,304.167 117.5,302.5 Z"/></g>
<g><path style="opacity:1" fill="#53122c" d="M 170.5,298.5 C 173.089,299.438 175.589,299.771 178,299.5C 177.683,301.773 176.183,302.773 173.5,302.5C 173.666,306.846 173.499,311.179 173,315.5C 172.586,315.957 172.086,316.291 171.5,316.5C 170.672,311.868 170.172,307.202 170,302.5C 168.644,303.38 167.144,303.714 165.5,303.5C 165.5,302.5 165.5,301.5 165.5,300.5C 167.553,300.598 169.22,299.931 170.5,298.5 Z"/></g>
<g><path style="opacity:1" fill="#52132b" d="M 214.5,298.5 C 227.199,297.995 230.532,303.162 224.5,314C 221.691,315.741 218.691,316.908 215.5,317.5C 214.998,311.801 214.331,306.135 213.5,300.5C 213.863,299.817 214.196,299.15 214.5,298.5 Z M 217.5,301.5 C 222.863,301.688 225.03,304.355 224,309.5C 222.622,311.213 220.955,312.547 219,313.5C 217.576,309.703 217.076,305.703 217.5,301.5 Z"/></g>
<g><path style="opacity:0.945" fill="#521129" d="M 257.5,298.5 C 260.572,298.183 263.572,298.516 266.5,299.5C 264.977,301.283 262.977,301.949 260.5,301.5C 260.34,303.199 260.506,304.866 261,306.5C 263.2,305.01 265.034,305.343 266.5,307.5C 261.428,307.398 259.595,309.731 261,314.5C 262.73,314.509 264.563,314.842 266.5,315.5C 263.883,318.555 261.05,318.888 258,316.5C 257.786,311.115 257.286,305.781 256.5,300.5C 256.863,299.817 257.196,299.15 257.5,298.5 Z"/></g>
<g><path style="opacity:0.949" fill="#57122c" d="M 149.5,299.5 C 150.675,299.281 151.675,299.614 152.5,300.5C 154.333,303.5 156.167,306.5 158,309.5C 158.333,306.5 158.667,303.5 159,300.5C 159.414,300.043 159.914,299.709 160.5,299.5C 161.663,304.802 161.829,310.136 161,315.5C 160.439,316.022 159.772,316.355 159,316.5C 156.304,313.462 153.97,310.129 152,306.5C 151.502,309.817 151.335,313.15 151.5,316.5C 150.5,316.5 149.5,316.5 148.5,316.5C 148.214,310.741 148.548,305.075 149.5,299.5 Z"/></g>
<g><path style="opacity:0.918" fill="#51112b" d="M 104.5,297.5 C 106.5,297.5 108.5,297.5 110.5,297.5C 110.5,298.5 110.5,299.5 110.5,300.5C 106.193,299.649 103.526,301.316 102.5,305.5C 110.233,306.674 110.399,308.341 103,310.5C 103.083,313.119 103.25,315.786 103.5,318.5C 102.5,318.5 101.5,318.5 100.5,318.5C 99.549,312.418 99.2157,306.418 99.5,300.5C 100.947,299.065 102.614,298.065 104.5,297.5 Z"/></g>
<g><path style="opacity:1" fill="#54102a" d="M 278.5,299.5 C 279.5,299.5 280.5,299.5 281.5,299.5C 280.667,305.671 278.667,311.338 275.5,316.5C 272.535,312.068 270.202,307.235 268.5,302C 269.648,300.274 270.815,300.441 272,302.5C 272.725,304.949 273.725,307.283 275,309.5C 276.858,306.428 278.024,303.095 278.5,299.5 Z"/></g>
<g><path style="opacity:1" fill="#551630" d="M 182.5,298.5 C 185.572,298.183 188.572,298.516 191.5,299.5C 189.941,301.131 187.941,301.964 185.5,302C 184.151,303.635 184.318,305.135 186,306.5C 187.356,305.62 188.856,305.286 190.5,305.5C 190.5,306.5 190.5,307.5 190.5,308.5C 184.842,308.237 183.342,310.57 186,315.5C 187.356,314.62 188.856,314.286 190.5,314.5C 190.5,315.5 190.5,316.5 190.5,317.5C 187.673,318.974 185.173,318.64 183,316.5C 181.317,310.489 181.15,304.489 182.5,298.5 Z"/></g>
<g><path style="opacity:0.863" fill="#511029" d="M 134.5,300.5 C 143.244,300.863 146.078,305.196 143,313.5C 137.865,317.957 133.532,317.29 130,311.5C 129.083,306.732 130.583,303.065 134.5,300.5 Z M 135.5,303.5 C 140.5,304.155 142.167,306.822 140.5,311.5C 136.547,314.513 133.88,313.513 132.5,308.5C 133.26,306.64 134.26,304.973 135.5,303.5 Z"/></g>
<g><path style="opacity:0.616" fill="#54112b" d="M 240.5,298.5 C 251.647,297.465 255.481,302.131 252,312.5C 249.306,314.681 246.306,316.348 243,317.5C 242.228,317.355 241.561,317.022 241,316.5C 240.759,311.295 240.259,306.128 239.5,301C 239.743,300.098 240.077,299.265 240.5,298.5 Z M 243.5,301.5 C 248.863,301.688 251.03,304.355 250,309.5C 248.587,311.414 246.753,312.747 244.5,313.5C 243.509,309.555 243.176,305.555 243.5,301.5 Z"/></g>
<g><path style="opacity:0.949" fill="#54142e" d="M 316.5,300.5 C 322.858,299.509 326.525,302.176 327.5,308.5C 326.525,314.986 322.858,317.486 316.5,316C 311.28,310.956 311.28,305.789 316.5,300.5 Z M 318.5,303.5 C 323.449,304.406 324.949,307.073 323,311.5C 318.93,314.686 316.43,313.686 315.5,308.5C 315.757,306.308 316.757,304.641 318.5,303.5 Z"/></g>
<g><path style="opacity:0.531" fill="#591832" d="M 300.5,298.5 C 301.5,298.5 302.5,298.5 303.5,298.5C 303.5,303.833 303.5,309.167 303.5,314.5C 305.86,313.084 307.86,313.417 309.5,315.5C 306.8,317.478 303.967,317.811 301,316.5C 300.501,310.509 300.334,304.509 300.5,298.5 Z"/></g>
<g><path style="opacity:0.949" fill="#52122c" d="M 346.5,298.5 C 349.572,298.183 352.572,298.516 355.5,299.5C 353.941,301.131 351.941,301.964 349.5,302C 348.151,303.635 348.318,305.135 350,306.5C 351.356,305.62 352.856,305.286 354.5,305.5C 354.5,306.5 354.5,307.5 354.5,308.5C 348.842,308.237 347.342,310.57 350,315.5C 351.814,314.24 353.647,314.24 355.5,315.5C 352.883,318.555 350.05,318.888 347,316.5C 345.317,310.489 345.15,304.489 346.5,298.5 Z"/></g>
</svg>
